<svg xmlns="http://www.w3.org/2000/svg" width="100" height="100"><path d="M94.576 0H5.424A5.43 5.43 0 0 0 0 5.424V70.71a5.43 5.43 0 0 0 5.424 5.424h9.543a1.476 1.476 0 0 0-.313.908c0 .379.144.757.433 1.046l7.108 7.108a30.327 30.327 0 0 0-1.396 3.364H10.75a1.48 1.48 0 0 0-1.479 1.48v8.48a1.48 1.48 0 0 0 1.48 1.48h29.19a1.48 1.48 0 0 0 1.48-1.48c0-4.513 3.672-8.185 8.186-8.185 4.512 0 8.184 3.672 8.184 8.186a1.48 1.48 0 0 0 1.48 1.48H88.46a1.48 1.48 0 0 0 1.48-1.48v-8.482a1.48 1.48 0 0 0-1.48-1.48h-10.05a30.326 30.326 0 0 0-1.395-3.363l7.108-7.108a1.471 1.471 0 0 0 .404-.753c.019-.097.028-.195.028-.293a1.477 1.477 0 0 0-.312-.908h10.332a5.43 5.43 0 0 0 5.423-5.424V34.114a1.48 1.48 0 0 0-1.478-1.48 1.48 1.48 0 0 0-1.48 1.48V70.71a2.468 2.468 0 0 1-2.465 2.465H81.303l-8.72-8.719V54.34a1.48 1.48 0 0 0-1.479-1.48h-2.662v-9.115l2.087-1.927a1.48 1.48 0 0 0 .477-1.088c0-.146-.022-.294-.067-.438l-3.55-11.44a1.48 1.48 0 0 0-1.413-1.04h-3.945a1.48 1.48 0 0 0-1.413 1.04l-3.55 11.44a1.476 1.476 0 0 0-.067.438 1.48 1.48 0 0 0 .477 1.088l2.088 1.927v9.116h-2.663a1.48 1.48 0 0 0-1.48 1.479v3.846H43.788v-2.247l5.68-5.68c.278-.279.434-.655.434-1.047v-12.13a1.478 1.478 0 0 0-.44-1.053l-7.89-7.79a1.48 1.48 0 0 0-1.04-.428c-.026 0-.053 0-.08.002a1.477 1.477 0 0 0-.489.112 1.48 1.48 0 0 0-.91 1.365v13.188l-3.845 2.421-3.846-2.421v-.843a1.48 1.48 0 1 0-2.959 0v1.66a1.479 1.479 0 0 0 .691 1.251l5.326 3.353a1.476 1.476 0 0 0 .788.228 1.476 1.476 0 0 0 .788-.228l5.325-3.353a1.479 1.479 0 0 0 .691-1.252V32.83l4.931 4.87v10.899l-5.68 5.68a1.48 1.48 0 0 0-.434 1.047v2.89a1.48 1.48 0 0 0-1.183 1.45v10.05a30.334 30.334 0 0 0-3.365 1.394l-6.695-6.695v-9.089a1.48 1.48 0 0 0-.433-1.046l-5.68-5.681v-10.9l4.93-4.869v1.876a1.48 1.48 0 0 0 1.48 1.48 1.48 1.48 0 0 0 1.479-1.48V29.29a1.478 1.478 0 0 0-.91-1.365 1.473 1.473 0 0 0-.488-.112 1.481 1.481 0 0 0-1.122.424l-7.89 7.791a1.478 1.478 0 0 0-.439 1.052v12.131c0 .392.156.768.434 1.046l5.68 5.681v8.518l-8.718 8.72H5.424a2.467 2.467 0 0 1-2.465-2.466V21.499H97.04v5.723a1.48 1.48 0 0 0 1.48 1.48 1.48 1.48 0 0 0 1.479-1.48V5.424A5.43 5.43 0 0 0 94.576 0ZM42.603 70.788v-9.644h14.004v9.644a1.48 1.48 0 0 0 1.048 1.415 27.398 27.398 0 0 1 4.866 2.018 1.477 1.477 0 0 0 .634.173h.06a1.48 1.48 0 0 0 1.047-.432l6.822-6.822 8.56 8.56 1.342 1.342-6.821 6.822c-.3.3-.449.703-.432 1.107a1.477 1.477 0 0 0 .172.635 27.35 27.35 0 0 1 2.018 4.866 1.48 1.48 0 0 0 1.415 1.046h9.644v5.523h-15.04c-.764-11.657-10.49-20.906-22.336-20.906a22.23 22.23 0 0 0-9.102 1.927 1.477 1.477 0 0 0-.817.936 1.477 1.477 0 0 0-.05.582 1.48 1.48 0 0 0 .118.436c.268.601.89.936 1.511.868a1.477 1.477 0 0 0 .442-.12 19.28 19.28 0 0 1 7.898-1.67c10.215 0 18.614 7.923 19.371 17.947h-8.326a11.16 11.16 0 0 0-11.045-9.664 11.16 11.16 0 0 0-11.046 9.664h-8.328a19.22 19.22 0 0 1 6.087-12.695 1.472 1.472 0 0 0 .436-.776 1.478 1.478 0 0 0-.298-1.234 1.503 1.503 0 0 0-.07-.081 1.473 1.473 0 0 0-.781-.437 1.478 1.478 0 0 0-1.229.299 1.5 1.5 0 0 0-.081.07 22.482 22.482 0 0 0-7.025 14.854H12.228v-5.523h9.645a1.48 1.48 0 0 0 1.415-1.046 27.351 27.351 0 0 1 2.018-4.866 1.48 1.48 0 0 0-.26-1.742l-6.82-6.822 1.34-1.34 8.561-8.562 6.822 6.822c.3.299.703.448 1.107.432a1.477 1.477 0 0 0 .635-.173 27.397 27.397 0 0 1 4.866-2.018 1.48 1.48 0 0 0 1.046-1.415ZM2.96 18.54V5.424a2.468 2.468 0 0 1 2.465-2.465h89.152a2.468 2.468 0 0 1 2.465 2.465V18.54H2.96Zm59.09 23.47-1.878-1.734 2.95-9.507h1.765l2.95 9.507-1.877 1.734a1.48 1.48 0 0 0-.476 1.087v9.763h-2.958v-9.763a1.481 1.481 0 0 0-.477-1.087Zm7.576 13.808v8.597L62.93 71.11a30.487 30.487 0 0 0-3.364-1.396v-10.05a1.48 1.48 0 0 0-1.184-1.449V55.82h11.243ZM19.566 75.702l.002-.002" fill="#fff" fill-rule="evenodd" data-name="Path 1612"/></svg>