<svg xmlns="http://www.w3.org/2000/svg" width="100" height="108.117"><path d="M96.832 77.671v21.364a5.921 5.921 0 0 1-5.915 5.915 5.921 5.921 0 0 1-5.914-5.915V63.807a9.093 9.093 0 0 0-9.083-9.082 9.092 9.092 0 0 0-9.081 9.082V74.52a5.921 5.921 0 0 1-5.915 5.914 5.921 5.921 0 0 1-5.915-5.914v-7.906l8.062-8.062a4.242 4.242 0 0 0 1.17-2.206c.053-.272.079-.548.079-.824a4.336 4.336 0 0 0-.127-1.033l19.43-19.429a4.29 4.29 0 0 0 .187-5.859 4.327 4.327 0 0 0-.188-.2L62.814 8.193h14.265a1.584 1.584 0 0 0 1.584-1.584c0-.875-.708-1.583-1.584-1.583H59.647l-3.773-3.773A4.263 4.263 0 0 0 53.62.07a4.285 4.285 0 0 0-3.605.995 4.328 4.328 0 0 0-.2.188L30.388 20.679a4.32 4.32 0 0 0-1.036-.13c-1.144 0-2.22.445-3.03 1.255l-8.402 8.403a4.29 4.29 0 0 0-.189 5.859 4.328 4.328 0 0 0 .189.2l11.144 11.145a86.187 86.187 0 0 1-12.383 9.973 98.056 98.056 0 0 1-4.702 2.949 26.404 26.404 0 0 0-4.651 3.508 29.294 29.294 0 0 0-.665.645 27.261 27.261 0 0 0-3.81 4.746C1.847 70.838 1.077 72.484.59 74.095a16.117 16.117 0 0 0-.044.149 14.329 14.329 0 0 0-.41 1.827c-.247 1.611-.155 3.078.267 4.343a6.368 6.368 0 0 0 1.54 2.518 6.693 6.693 0 0 0 3.86 1.857 9.197 9.197 0 0 0 1.318.092 12.61 12.61 0 0 0 3.503-.538c1.79-.52 3.679-1.418 5.568-2.677a26.62 26.62 0 0 0 1.152-.814 1.58 1.58 0 0 0 .589-.885 1.58 1.58 0 0 0-.213-1.255 1.605 1.605 0 0 0-.054-.076 1.579 1.579 0 0 0-.869-.585 1.579 1.579 0 0 0-1.27.208 1.606 1.606 0 0 0-.078.055c-3.67 2.739-7.478 3.915-9.855 3.197a3.323 3.323 0 0 1-1.41-.818c-1.091-1.091-1.308-3.118-.596-5.563a14.961 14.961 0 0 1 .764-2.035c.62-1.355 1.462-2.72 2.488-4.037a25.278 25.278 0 0 1 2.064-2.332c1.462-1.462 3.038-2.696 4.683-3.663 6.681-3.934 12.636-8.444 17.717-13.412l3.92 3.92a89.7 89.7 0 0 0-10.748 13.44 101.657 101.657 0 0 0-2.663 4.278 20.355 20.355 0 0 1-.37.605 22.914 22.914 0 0 1-1.35 1.893 1.584 1.584 0 0 0 1.242 2.565 1.581 1.581 0 0 0 1.168-.512 1.605 1.605 0 0 0 .076-.09 25.877 25.877 0 0 0 1.65-2.337c.07-.112.139-.224.206-.337a22.535 22.535 0 0 0 .108-.18 92.095 92.095 0 0 1 9.42-13.259 80.472 80.472 0 0 1 3.502-3.826l11.144 11.144a4.253 4.253 0 0 0 3.03 1.255 2.096 2.096 0 0 0 .136-.006 4.2 4.2 0 0 1 .068-.004v6.32a9.093 9.093 0 0 0 9.082 9.081 9.092 9.092 0 0 0 9.082-9.081V63.807a5.922 5.922 0 0 1 5.915-5.914 5.921 5.921 0 0 1 5.915 5.914v35.228a9.092 9.092 0 0 0 9.081 9.082c5.009 0 9.083-4.074 9.083-9.082V77.67a1.584 1.584 0 0 0-1.585-1.583c-.874 0-1.583.708-1.583 1.583ZM53.634 3.492l27.748 27.749a1.117 1.117 0 0 1 0 1.579L62.39 51.812l-7.408-7.409 3.209-3.208c.59-.59.617-1.529.082-2.151a1.607 1.607 0 0 0-.082-.09 1.578 1.578 0 0 0-.817-.434 1.582 1.582 0 0 0-1.423.434l-3.21 3.21-11.216-11.218 3.21-3.208c.59-.59.617-1.528.082-2.15a1.606 1.606 0 0 0-.083-.09 1.579 1.579 0 0 0-.816-.434 1.581 1.581 0 0 0-1.341.358 1.603 1.603 0 0 0-.082.076l-3.21 3.209L37.58 27l12.63-12.63a1.58 1.58 0 0 0 .431-.798c.097-.468-.02-.97-.348-1.353a1.607 1.607 0 0 0-.083-.09 1.583 1.583 0 0 0-2.158-.076 1.604 1.604 0 0 0-.081.076L35.338 24.76l-2.276-2.275L52.054 3.492a1.118 1.118 0 0 1 1.58 0Zm-2.786 61.223L20.16 34.027a1.11 1.11 0 0 1-.308-.588c-.064-.35.039-.723.308-.992l8.404-8.403a1.11 1.11 0 0 1 .79-.327c.298 0 .578.116.79.327L60.83 54.733c.419.418.435 1.089.049 1.527a1.129 1.129 0 0 1-.049.052l-8.403 8.403a1.11 1.11 0 0 1-.79.328 1.108 1.108 0 0 1-.79-.328Z" fill="#fff" fill-rule="evenodd" data-name="Path 1598"/></svg>