<svg xmlns="http://www.w3.org/2000/svg" width="100" height="115.342"><path d="M40.293 103.024H56.99c4.616 0 8.372-3.755 8.372-8.372v-.498a8.471 8.471 0 0 0-1.644-4.981c-4.883-6.757-4.46-16.847.963-22.97.869-.98 1.84-1.867 2.884-2.637.404-.298.658-.755.695-1.256a1.728 1.728 0 0 0 .005-.128 1.72 1.72 0 0 0-.504-1.217L54.97 48.171a6.714 6.714 0 0 1-1.98-4.78c0-1.804.703-3.501 1.98-4.777a6.768 6.768 0 0 1 9.24-.298 6.824 6.824 0 0 1 .316.297l9.242 9.242a4.118 4.118 0 0 1 .003.003 24.602 24.602 0 0 0 .005.005L91.09 65.176a18.75 18.75 0 0 1 2.179 2.619 1.72 1.72 0 0 0 2.31.494 1.75 1.75 0 0 0 .082-.052 1.72 1.72 0 0 0 .492-2.314 1.746 1.746 0 0 0-.05-.078 22.146 22.146 0 0 0-2.581-3.101L76.707 45.93V8.25c0-4.549-3.7-8.25-8.248-8.25H29.603a1.72 1.72 0 0 0-1.72 1.72 1.72 1.72 0 0 0 1.72 1.72h38.856a4.814 4.814 0 0 1 4.808 4.81v1.77H11.53V8.25a4.815 4.815 0 0 1 4.81-4.81h6.383a1.72 1.72 0 0 0 1.72-1.72A1.72 1.72 0 0 0 22.722 0H16.34a8.259 8.259 0 0 0-8.25 8.25v25.642A9.824 9.824 0 0 0 0 43.548a9.808 9.808 0 0 0 4.267 8.09A9.814 9.814 0 0 0 .011 59.26a9.923 9.923 0 0 0-.011.469 9.826 9.826 0 0 0 8.09 9.657v25.391a8.257 8.257 0 0 0 8.25 8.247h19.129a36.076 36.076 0 0 0 1.404 1.487 36.738 36.738 0 0 0 26.149 10.83 37.02 37.02 0 0 0 36.97-36.344 23.032 23.032 0 0 0 .008-.572 15.971 15.971 0 0 0 0-.066 22.117 22.117 0 0 0-.766-5.745 1.72 1.72 0 0 0-1.659-1.272c-.116 0-.234.011-.352.036a1.75 1.75 0 0 0-.097.023 1.72 1.72 0 0 0-1.272 1.659c0 .114.012.23.036.346a1.745 1.745 0 0 0 .024.104 18.767 18.767 0 0 1 .647 4.854 18.86 18.86 0 0 1 0 .023 17.97 17.97 0 0 1-5.45 12.995 18.149 18.149 0 0 1-5.142 3.525 1.72 1.72 0 0 0-.856 2.27 1.77 1.77 0 0 0 .004.009 1.714 1.714 0 0 0 1.043.925 1.725 1.725 0 0 0 .523.081 1.723 1.723 0 0 0 .2-.011 1.712 1.712 0 0 0 .513-.143 21.525 21.525 0 0 0 4.652-2.892c-5.81 10.01-16.644 16.756-29.026 16.756a33.3 33.3 0 0 1-22.73-8.878ZM73.267 13.46v29.032l-6.31-6.31a10.139 10.139 0 0 0-5.381-2.817 10.2 10.2 0 0 0-9.04 2.817 10.132 10.132 0 0 0-2.986 7.21c0 2.725 1.06 5.286 2.986 7.213L63.98 62.048c-.66.585-1.285 1.21-1.872 1.873C58.033 68.523 56.33 75 57.087 81.166H11.53V13.459h61.737ZM51.79 99.584a.064.064 0 0 1 .002 0 .024.024 0 0 1 .002 0h5.197a4.937 4.937 0 0 0 4.932-4.933v-.497a4.768 4.768 0 0 0-.033-.56 5.139 5.139 0 0 0-.959-2.406 20.965 20.965 0 0 1-3.155-6.583H11.53v10.172a4.814 4.814 0 0 0 4.81 4.808h35.445a.022.022 0 0 0 .001 0ZM8.09 37.415v12.266c-2.679-.753-4.65-3.216-4.65-6.133 0-2.916 1.971-5.38 4.65-6.133Zm0 16.182v12.265c-2.679-.753-4.65-3.217-4.65-6.133s1.971-5.38 4.65-6.132Zm43.7 45.987h-.004" fill="#fff" fill-rule="evenodd" data-name="Path 1595"/></svg>