<svg xmlns="http://www.w3.org/2000/svg" width="100" height="90.426" viewBox="910.016 1746 100 90.426"><g data-name="006-domain-registration"><path d="M1008.42 1746H911.61a1.596 1.596 0 0 0-1.595 1.596v87.234c0 .881.714 1.596 1.595 1.596h96.809a1.596 1.596 0 0 0 1.596-1.596v-17.021c0-.882-.715-1.596-1.596-1.596a1.596 1.596 0 0 0-1.596 1.596v15.425h-93.617v-71.277h93.617v49.469a1.596 1.596 0 0 0 1.596 1.595c.881 0 1.596-.714 1.596-1.595v-63.83a1.596 1.596 0 0 0-1.596-1.596Zm-95.213 3.191h59.043v9.575h-59.043v-9.575Zm62.234 9.575v-9.575h31.383v9.575h-31.383Z" fill="#fff" fill-rule="evenodd" data-name="Path 1613"/><path d="M991.142 1752.527c-.976 0-1.77.794-1.77 1.77 0 .975.794 1.77 1.77 1.77s1.77-.795 1.77-1.77c0-.976-.794-1.77-1.77-1.77Z" fill="#fff" fill-rule="evenodd" data-name="Path 1614"/><path d="M982.43 1752.527a1.772 1.772 0 0 0-1.769 1.77 1.772 1.772 0 0 0 1.77 1.77c.976 0 1.77-.795 1.77-1.77 0-.976-.794-1.77-1.77-1.77Z" fill="#fff" fill-rule="evenodd" data-name="Path 1615"/><path d="M999.507 1752.527c-.976 0-1.77.794-1.77 1.77 0 .975.794 1.77 1.77 1.77s1.77-.795 1.77-1.77c0-.976-.794-1.77-1.77-1.77Z" fill="#fff" fill-rule="evenodd" data-name="Path 1616"/><path d="m943.443 1788.511 3.817-12.742c.047-.159.07-.319.07-.477a1.66 1.66 0 0 0-1.184-1.589 1.677 1.677 0 0 0-.177-.042 1.66 1.66 0 0 0-1.888 1.156l-2.738 9.138-2.639-4.404c-.3-.5-.84-.807-1.423-.807a1.66 1.66 0 0 0-1.424.807l-2.639 4.404-2.737-9.137a1.66 1.66 0 0 0-2.066-1.113 1.66 1.66 0 0 0-1.183 1.589c0 .1.009.2.028.302a1.678 1.678 0 0 0 .042.175l3.817 12.74a1.66 1.66 0 0 0 1.383 1.17c.07.01.138.014.206.014a1.66 1.66 0 0 0 1.424-.807l3.148-5.256 3.15 5.256a1.66 1.66 0 0 0 1.629.794 1.659 1.659 0 0 0 1.384-1.17Z" fill="#fff" fill-rule="evenodd" data-name="Path 1617"/><path d="m955.382 1788.886 3.149-5.255 3.149 5.255a1.66 1.66 0 0 0 1.63.794 1.659 1.659 0 0 0 1.383-1.17l3.817-12.742a1.679 1.679 0 0 0 .042-.175c.019-.101.028-.202.028-.302a1.66 1.66 0 0 0-1.183-1.59 1.678 1.678 0 0 0-.175-.041 1.651 1.651 0 0 0-.302-.028 1.66 1.66 0 0 0-1.59 1.183l-2.737 9.14-2.639-4.405a1.66 1.66 0 0 0-1.423-.807 1.66 1.66 0 0 0-1.424.807l-2.638 4.404-2.737-9.137a1.66 1.66 0 0 0-1.589-1.184c-.1 0-.203.01-.305.029a1.68 1.68 0 0 0-.172.042 1.66 1.66 0 0 0-1.184 1.589c0 .1.01.2.028.301a1.678 1.678 0 0 0 .043.175l3.816 12.741a1.66 1.66 0 0 0 3.013.376Z" fill="#fff" fill-rule="evenodd" data-name="Path 1618"/><path d="m986.581 1774.814-2.738 9.138-2.639-4.404a1.66 1.66 0 0 0-2.847 0l-2.639 4.404-2.737-9.137a1.66 1.66 0 0 0-3.221.778 1.678 1.678 0 0 0 .042.175l3.817 12.74a1.66 1.66 0 0 0 1.384 1.17 1.662 1.662 0 0 0 .206.014 1.66 1.66 0 0 0 1.423-.807l3.149-5.256 3.149 5.256a1.66 1.66 0 0 0 1.423.807 1.662 1.662 0 0 0 .156-.008 1.642 1.642 0 0 0 .05-.005 1.659 1.659 0 0 0 1.383-1.17l3.818-12.743a1.678 1.678 0 0 0 .042-.175c.019-.101.028-.202.028-.302a1.66 1.66 0 0 0-1.183-1.588 1.678 1.678 0 0 0-.177-.043c-.1-.019-.2-.028-.3-.028a1.66 1.66 0 0 0-1.589 1.184Z" fill="#fff" fill-rule="evenodd" data-name="Path 1619"/><path d="M937.816 1796.454h-8.85a1.66 1.66 0 0 0-1.66 1.66v8.85c0 .916.744 1.658 1.66 1.658h8.85a1.66 1.66 0 0 0 1.66-1.659v-8.85a1.66 1.66 0 0 0-1.66-1.659Zm-1.66 8.85h-5.53v-5.531h5.53v5.53Z" fill="#fff" fill-rule="evenodd" data-name="Path 1620"/><path d="M937.816 1810.661h-8.85a1.66 1.66 0 0 0-1.66 1.66v8.85c0 .916.744 1.659 1.66 1.659h8.85a1.66 1.66 0 0 0 1.66-1.66v-8.85a1.66 1.66 0 0 0-1.66-1.659Zm-1.66 8.85h-5.53v-5.531h5.53v5.531Z" fill="#fff" fill-rule="evenodd" data-name="Path 1621"/><path d="M988.062 1800.93h-6.637a1.66 1.66 0 0 0-1.66 1.66 1.66 1.66 0 0 0 1.66 1.658h6.637a1.66 1.66 0 0 0 1.66-1.659 1.66 1.66 0 0 0-1.66-1.66Z" fill="#fff" fill-rule="evenodd" data-name="Path 1622"/><path d="M975.908 1800.93h-32.636a1.66 1.66 0 1 0 0 3.318h32.636a1.66 1.66 0 0 0 1.66-1.659 1.66 1.66 0 0 0-1.66-1.66Z" fill="#fff" fill-rule="evenodd" data-name="Path 1623"/><path d="M988.062 1815.802h-6.637a1.66 1.66 0 0 0-1.66 1.66 1.66 1.66 0 0 0 1.66 1.658h6.637a1.66 1.66 0 0 0 1.66-1.659 1.66 1.66 0 0 0-1.66-1.66Z" fill="#fff" fill-rule="evenodd" data-name="Path 1624"/><path d="M975.908 1815.802h-32.636a1.66 1.66 0 1 0 0 3.318h32.636a1.66 1.66 0 0 0 1.66-1.659 1.66 1.66 0 0 0-1.66-1.66Z" fill="#fff" fill-rule="evenodd" data-name="Path 1625"/></g></svg>