<svg xmlns="http://www.w3.org/2000/svg" width="100" height="99.892"><path d="M93.56 0H6.442A6.449 6.449 0 0 0 0 6.442v70.814a6.449 6.449 0 0 0 6.442 6.44h5.507a1.463 1.463 0 1 0 0-2.926H6.442a3.518 3.518 0 0 1-3.515-3.514v-5.552h53.32v2.522h-1.16a2.881 2.881 0 0 0-2.879 2.879v3.665h-31.36a1.464 1.464 0 0 0-1.464 1.463c0 .809.656 1.464 1.464 1.464h14.071v5.249H30.5a5.352 5.352 0 0 0-5.346 5.346v3.161a2.442 2.442 0 0 0 2.44 2.44h44.702a2.442 2.442 0 0 0 2.44-2.44v-3.161a5.352 5.352 0 0 0-5.347-5.346H64.97v-1.85h27.056a2.881 2.881 0 0 0 2.878-2.88v-.688a6.45 6.45 0 0 0 4.985-6.272L100 6.44A6.447 6.447 0 0 0 93.56 0Zm3.403 68.777h-2.106a1.368 1.368 0 0 0 .005-.11c.027-.948.043-7.512.043-7.512a2.882 2.882 0 0 0-2.879-2.878h-1.16v-3.08h1.16a2.882 2.882 0 0 0 2.879-2.878v-7.113a2.882 2.882 0 0 0-2.879-2.879H83.76a1.463 1.463 0 1 0 0 2.928h8.217v7.015H55.136v-7.015h19.517a1.463 1.463 0 0 0 1.464-1.464 1.463 1.463 0 0 0-1.464-1.464H55.087a2.882 2.882 0 0 0-2.879 2.879v7.113a2.882 2.882 0 0 0 2.879 2.879h1.16v3.079h-1.16a2.882 2.882 0 0 0-2.879 2.878 709.535 709.535 0 0 0 0 .086c.002.828.02 7.381.048 7.536H2.927V19.908h94.035v48.87Zm0-51.796H3.035V6.44a3.518 3.518 0 0 1 3.514-3.514h86.9a3.518 3.518 0 0 1 3.514 3.515V16.98ZM71.808 94.29v2.675H28.081v-2.674a2.422 2.422 0 0 1 2.42-2.419H69.39a2.421 2.421 0 0 1 2.418 2.419ZM55.136 68.22v-7.015h36.842v7.015H55.136Zm36.842 15.95H55.136v-7.015h36.842v7.014Zm-4.04-13.023v3.08H59.175v-3.08H87.94Zm-28.764-12.87v-3.078H87.94v3.079H59.174Zm-21.328 25.42h14.362v.522a2.881 2.881 0 0 0 2.879 2.877h6.956v1.85H37.846v-5.248Zm57.059-3.246v-3.346a2.882 2.882 0 0 0-2.879-2.878h-1.16v-2.522h6.097v5.552a3.502 3.502 0 0 1-1.32 2.739 3.532 3.532 0 0 1-.738.455Z" fill="#fff" fill-rule="evenodd" data-name="Path 1591"/></svg>