<svg xmlns="http://www.w3.org/2000/svg" width="100" height="105.978" viewBox="511.014 2111 100 105.978"><g data-name="004-app"><path d="M576.406 2213.659h-48.73c-7.357 0-13.344-5.977-13.344-13.323v-48.717a1.66 1.66 0 0 0-1.659-1.66 1.66 1.66 0 0 0-1.66 1.66v48.717a16.671 16.671 0 0 0 16.664 16.642h48.73a1.66 1.66 0 0 0 1.659-1.66 1.66 1.66 0 0 0-1.66-1.66Z" fill="#fff" fill-rule="evenodd" data-name="Path 1603"/><path d="M564.613 2123.505h-38.01a15.598 15.598 0 0 0-15.59 15.57v9.425a1.552 1.552 0 1 0 3.106 0v-9.425c0-6.873 5.6-12.465 12.484-12.465h36.506a24.634 24.634 0 0 0-1.768 8.89 25.11 25.11 0 0 0-.002.304c0 13.676 11.142 24.803 24.838 24.803a24.713 24.713 0 0 0 10.878-2.51 24.86 24.86 0 0 0 1.796-.971v44.282c0 6.873-5.6 12.465-12.484 12.465h-6.887a1.552 1.552 0 1 0 0 3.105h6.887c8.595 0 15.59-6.985 15.59-15.57v-46.464a24.762 24.762 0 0 0 9.016-17.707 25.04 25.04 0 0 0 .04-1.433 24.716 24.716 0 0 0-3.753-13.119 1.552 1.552 0 0 0-2.671 1.582 1.582 1.582 0 0 0 .038.064 21.619 21.619 0 0 1 3.282 11.473c0 11.965-9.75 21.698-21.732 21.698-11.984 0-21.733-9.733-21.733-21.698a21.74 21.74 0 0 1 21.733-21.7c5.037 0 9.947 1.761 13.824 4.956a1.546 1.546 0 0 0 .724.332 1.553 1.553 0 0 0 1.387-.459 1.575 1.575 0 0 0 .074-.084 1.548 1.548 0 0 0 .33-.715 1.55 1.55 0 0 0-.541-1.47 24.896 24.896 0 0 0-15.798-5.664 24.777 24.777 0 0 0-17.541 7.26 24.968 24.968 0 0 0-4.023 5.245Z" fill="#fff" fill-rule="evenodd" data-name="Path 1604"/><path d="M587.84 2147.847v-20.664a1.66 1.66 0 0 0-.99-1.518 1.657 1.657 0 0 0-.594-.14 1.662 1.662 0 0 0-.075-.001 1.661 1.661 0 0 0-1.118.431l-3.557 3.239a1.65 1.65 0 0 0-.503.87c-.104.472 0 .983.317 1.384a1.684 1.684 0 0 0 .077.09 1.652 1.652 0 0 0 .87.504c.472.103.982 0 1.383-.317a1.684 1.684 0 0 0 .09-.077l.78-.71v16.91c0 .915.743 1.659 1.66 1.659a1.66 1.66 0 0 0 1.66-1.66Z" fill="#fff" fill-rule="evenodd" data-name="Path 1605"/><path d="m530.215 2199.213 1.402-4.889h8.424l1.42 4.902c.173.497.622.745 1.342.745a3.316 3.316 0 0 0 1.694-.466 2.373 2.373 0 0 0 .366-.258c.289-.251.433-.536.433-.852 0-.072-.023-.18-.068-.323l-6.786-22.176a1.543 1.543 0 0 0-.852-.867c-.39-.178-.9-.27-1.528-.279a7.044 7.044 0 0 0-.094 0c-.657 0-1.188.1-1.592.3a1.614 1.614 0 0 0-.844.93l-6.805 22.18a.49.49 0 0 0-.017.07c-.01.051-.015.113-.017.186a2.245 2.245 0 0 0 0 .052 1.026 1.026 0 0 0 .253.67c.083.1.186.195.31.286a2.454 2.454 0 0 0 .155.104 2.88 2.88 0 0 0 1.539.443 2.105 2.105 0 0 0 .45-.045 1.2 1.2 0 0 0 .447-.19.989.989 0 0 0 .368-.523Zm5.593-19.508 3.437 11.745h-6.804l3.367-11.745Z" fill="#fff" fill-rule="evenodd" data-name="Path 1606"/><path d="M549.815 2198.77v-8.454h4.25a10.88 10.88 0 0 0 2.333-.236c1.28-.28 2.37-.812 3.27-1.594a5.666 5.666 0 0 0 1.645-2.53c.212-.628.35-1.329.417-2.1a12.855 12.855 0 0 0 .046-1.102v-.273a11.791 11.791 0 0 0-.178-2.12 7.318 7.318 0 0 0-.676-2.054 5.294 5.294 0 0 0-1.186-1.542 6.914 6.914 0 0 0-3-1.537 10.186 10.186 0 0 0-2.3-.276 12.749 12.749 0 0 0-.166 0h-6.683a1.817 1.817 0 0 0-.456.054 1.354 1.354 0 0 0-.555.288 1.218 1.218 0 0 0-.255.3 1.008 1.008 0 0 0-.14.52v22.655c0 .366.184.656.55.873a2.32 2.32 0 0 0 .918.305 2.932 2.932 0 0 0 .35.02c.501 0 .93-.108 1.284-.325a1.306 1.306 0 0 0 .286-.23.92.92 0 0 0 .246-.643Zm0-20.602h4.25c1.069 0 1.937.246 2.606.738a3.266 3.266 0 0 1 .41.357c.563.582.903 1.402 1.018 2.461a7.975 7.975 0 0 1 .044.859v.41c0 1.483-.355 2.595-1.063 3.337a3.454 3.454 0 0 1-1.676.956 5.25 5.25 0 0 1-1.204.155 6.7 6.7 0 0 1-.136.001h-4.25v-9.274Z" fill="#fff" fill-rule="evenodd" data-name="Path 1607"/><path d="M571.54 2174.951h-6.684a1.821 1.821 0 0 0-.46.056 1.34 1.34 0 0 0-.55.287 1.218 1.218 0 0 0-.256.3 1.008 1.008 0 0 0-.139.52v22.655c0 .366.182.656.548.873a2.321 2.321 0 0 0 .92.305 2.935 2.935 0 0 0 .349.02 2.915 2.915 0 0 0 .616-.062 2.134 2.134 0 0 0 .669-.263 1.302 1.302 0 0 0 .286-.23.92.92 0 0 0 .244-.643v-8.453h4.25c2.18 0 3.957-.534 5.328-1.602a6.77 6.77 0 0 0 .276-.228 5.668 5.668 0 0 0 1.644-2.53c.212-.628.351-1.329.418-2.1a12.856 12.856 0 0 0 .045-1.102v-.274a11.796 11.796 0 0 0-.177-2.12 7.318 7.318 0 0 0-.675-2.053 5.29 5.29 0 0 0-1.186-1.542 6.919 6.919 0 0 0-3.001-1.537 10.183 10.183 0 0 0-2.3-.275 12.748 12.748 0 0 0-.166-.002Zm-.206 12.491h-4.25v-9.274h4.25c1.066 0 1.932.244 2.6.733a3.258 3.258 0 0 1 .415.362c.564.582.904 1.402 1.019 2.461a7.959 7.959 0 0 1 .044.859v.41c0 1.483-.355 2.595-1.063 3.337-.683.715-1.643 1.086-2.879 1.11a6.7 6.7 0 0 1-.136.002Z" fill="#fff" fill-rule="evenodd" data-name="Path 1608"/></g></svg>